HIERARCHY
ROOT SpineBase
{
  OFFSET 0.000000 0.000000 0.000000
  CHANNELS 6 Xposition Yposition Zposition Zrotation Xrotation Yrotation
  JOINT SpineMid
  {
    OFFSET 0.000000 29.486499 0.000000
    CHANNELS 3 Zrotation Xrotation Yrotation
    JOINT SpineShoulder
    {
      OFFSET 0.306117 21.854216 -0.695705
      CHANNELS 3 Zrotation Xrotation Yrotation
      JOINT Neck
      {
        OFFSET 0.167085 7.219528 -0.528892
        CHANNELS 3 Zrotation Xrotation Yrotation
        JOINT Head
        {
          OFFSET 5.057230 10.887092 1.421108
          CHANNELS 3 Zrotation Xrotation Yrotation
          End Site
          {
            OFFSET 0 0 0
          }
        }
      }
      JOINT ShoulderLeft
      {
        OFFSET -11.152532 -2.999497 -12.591098
        CHANNELS 3 Zrotation Xrotation Yrotation
        JOINT ElbowLeft
        {
          OFFSET -5.489920 -22.408135 -4.353584
          CHANNELS 3 Zrotation Xrotation Yrotation
          JOINT WristLeft
          {
            OFFSET -0.383283 -22.519540 -4.115990
            CHANNELS 3 Zrotation Xrotation Yrotation
            JOINT HandLeft
            {
              OFFSET -1.914969 -5.326289 -0.215862
              CHANNELS 3 Zrotation Xrotation Yrotation
              JOINT HandTipLeft
              {
                OFFSET -0.132048 -6.265512 -1.422510
                CHANNELS 3 Zrotation Xrotation Yrotation
                End Site
                {
                  OFFSET 0 0 0
                }
              }
              JOINT ThumbLeft
              {
                OFFSET -2.646732 0.172908 -2.824080
                CHANNELS 3 Zrotation Xrotation Yrotation
                End Site
                {
                  OFFSET 0 0 0
                }
              }
            }
          }
        }
      }
      JOINT ShoulderRight
      {
        OFFSET 12.956100 -4.989070 12.979279
        CHANNELS 3 Zrotation Xrotation Yrotation
        JOINT ElbowRight
        {
          OFFSET -1.092464 -27.162577 0.064039
          CHANNELS 3 Zrotation Xrotation Yrotation
          JOINT WristRight
          {
            OFFSET 0.884137 -22.368517 -8.344675
            CHANNELS 3 Zrotation Xrotation Yrotation
            JOINT HandRight
            {
              OFFSET -1.234201 -3.236446 -1.514225
              CHANNELS 3 Zrotation Xrotation Yrotation
              JOINT HandTipRight
              {
                OFFSET -0.889737 -5.136595 -0.388122
                CHANNELS 3 Zrotation Xrotation Yrotation
                End Site
                {
                  OFFSET 0 0 0
                }
              }
              JOINT ThumbRight
              {
                OFFSET 0.490617 -4.828205 -0.188249
                CHANNELS 3 Zrotation Xrotation Yrotation
                End Site
                {
                  OFFSET 0 0 0
                }
              }
            }
          }
        }
      }
    }
  }
  JOINT HipLeft
  {
    OFFSET -4.220392 1.769192 -8.174576
    CHANNELS 3 Zrotation Xrotation Yrotation
    JOINT KneeLeft
    {
      OFFSET -12.343335 -29.270117 -5.932032
      CHANNELS 3 Zrotation Xrotation Yrotation
      JOINT AnkleLeft
      {
        OFFSET -7.519361 -32.158955 -0.757780
        CHANNELS 3 Zrotation Xrotation Yrotation
        JOINT FootLeft
        {
          OFFSET 0.625418 -7.007592 -7.592134
          CHANNELS 3 Zrotation Xrotation Yrotation
          End Site
          {
            OFFSET 0 0 0
          }
        }
      }
    }
  }
  JOINT HipRight
  {
    OFFSET 5.026799 -0.319102 1.135265
    CHANNELS 3 Zrotation Xrotation Yrotation
    JOINT KneeRight
    {
      OFFSET -6.736253 -31.454355 3.724830
      CHANNELS 3 Zrotation Xrotation Yrotation
      JOINT AnkleRight
      {
        OFFSET -3.324636 -27.844486 2.831734
        CHANNELS 3 Zrotation Xrotation Yrotation
        JOINT FootRight
        {
          OFFSET 3.431085 -7.645701 -3.631736
          CHANNELS 3 Zrotation Xrotation Yrotation
          End Site
          {
            OFFSET 0 0 0
          }
        }
      }
    }
  }
}
MOTION
Frames: 13
Frame Time: 0.033333
-33.586460 67.857240 335.545191 -5.269247 3.350172 -51.970019 0.165924 0.453729 51.941611 0.240830 0.083371 -0.205199 -1.648633 1.705282 -1.147688 0.000000 0.000000 0.000000 4.230627 3.237153 -1.028662 12.576808 -6.160197 0.772176 17.383530 0.952074 0.533562 -11.823171 -11.137942 -0.671069 0.000000 0.000000 0.000000 0.000000 0.000000 0.000000 6.668919 -4.113655 0.727673 -11.309665 10.370171 4.577411 6.535891 -14.400570 -0.929570 -9.164014 14.249172 -1.563203 0.000000 0.000000 0.000000 0.000000 0.000000 0.000000 2.561270 2.152483 51.431740 -0.808558 -0.013477 0.138319 -3.083401 0.474765 6.992961 0.000000 0.000000 0.000000 1.987700 3.631193 51.209992 -2.036002 -1.315954 0.237960 1.628087 -4.797424 0.475066 0.000000 0.000000 0.000000
-33.477178 67.904603 335.541678 -5.438418 3.484690 -52.347195 0.148418 0.360258 52.317042 0.219835 0.066053 -0.218665 -1.096367 1.363502 -1.044788 0.000000 0.000000 0.000000 4.040028 3.235460 -0.923864 12.899535 -5.774089 0.691581 16.704907 1.429165 0.118108 -12.739975 -12.773506 0.040158 0.000000 0.000000 0.000000 0.000000 0.000000 0.000000 6.429908 -2.887983 0.657275 -10.944519 8.223991 4.380405 6.681076 -12.610076 -1.296881 -11.743040 15.143363 -0.932809 0.000000 0.000000 0.000000 0.000000 0.000000 0.000000 3.086651 2.255384 51.858736 -1.285462 0.193301 0.094462 -2.461332 0.497442 6.595351 0.000000 0.000000 0.000000 2.243110 4.188511 51.606981 -3.003521 -1.636532 0.135750 -1.402253 -9.394809 -0.311586 0.000000 0.000000 0.000000
-33.477515 68.041451 335.365088 -5.697514 3.737068 -52.654973 0.156242 0.238103 52.625820 0.198732 0.019483 -0.237558 -0.523884 1.079355 -0.966382 0.000000 0.000000 0.000000 3.971534 3.104493 -0.793337 13.199754 -4.906872 0.528801 16.169741 -0.051520 0.920600 -13.772210 -10.120120 -0.384537 0.000000 0.000000 0.000000 0.000000 0.000000 0.000000 6.141335 -1.314330 0.585859 -10.164271 5.662819 4.025089 5.476301 -13.576029 -0.298239 -12.875545 19.189382 -1.199805 0.000000 0.000000 0.000000 0.000000 0.000000 0.000000 3.843573 2.507143 52.178120 -1.755104 -0.011069 0.170459 -2.708251 1.573711 6.911645 0.000000 0.000000 0.000000 3.014779 5.031458 52.005191 -4.612503 -1.930963 -0.083173 3.119474 -4.940197 0.332798 0.000000 0.000000 0.000000
-33.475694 68.138358 335.248109 -5.908692 3.809393 -52.685420 0.111447 0.163424 52.653536 0.161733 0.014413 -0.254421 0.100251 0.761526 -0.856641 0.000000 0.000000 0.000000 4.095980 2.853575 -0.671063 13.248304 -4.345830 0.375949 15.505279 -0.130938 0.871316 -12.924230 -7.337426 -0.754580 0.000000 0.000000 0.000000 0.000000 0.000000 0.000000 5.989503 -0.620431 0.570171 -9.226604 4.394984 3.715525 3.791077 -14.162200 0.604972 -12.629620 23.325149 -1.698433 0.000000 0.000000 0.000000 0.000000 0.000000 0.000000 3.823246 3.005163 52.035373 -2.006605 -0.949680 0.457200 -3.124902 2.605353 7.396903 0.000000 0.000000 0.000000 3.707254 6.294566 52.120300 -6.865532 -2.571828 -0.381183 3.019016 -5.505892 0.457454 0.000000 0.000000 0.000000
-33.508391 68.209069 335.114814 -6.159505 3.807323 -52.700888 0.129721 0.114072 52.665721 0.157498 -0.026162 -0.267182 0.905655 0.583734 -0.769334 0.000000 0.000000 0.000000 4.157832 2.641199 -0.535641 13.391333 -3.735114 0.173108 14.617020 0.433738 0.427053 -11.048400 -5.995938 -0.880798 0.000000 0.000000 0.000000 0.000000 0.000000 0.000000 5.788235 1.196613 0.505483 -8.050581 1.455235 3.169327 3.537510 -13.055617 0.838742 -10.826950 22.084893 -2.221248 0.000000 0.000000 0.000000 0.000000 0.000000 0.000000 3.445358 3.664571 51.794517 -2.097123 -2.223365 0.837786 -3.767381 3.243203 8.080825 0.000000 0.000000 0.000000 4.328882 8.138794 52.191533 -9.626028 -3.784323 -0.745549 6.727616 -1.463987 0.951255 0.000000 0.000000 0.000000
-33.576589 68.221381 334.977536 -6.400627 3.730690 -52.492044 0.190504 0.111903 52.453991 0.182186 -0.082121 -0.273810 1.501037 0.728180 -0.775783 0.000000 0.000000 0.000000 4.105926 2.447141 -0.396848 13.432896 -3.089962 -0.049093 14.904464 2.371120 -0.933418 -10.043107 -8.261370 -0.022328 0.000000 0.000000 0.000000 0.000000 0.000000 0.000000 5.339868 3.958461 0.409411 -6.608573 -2.308830 2.592769 3.732593 -11.786317 0.861233 -9.604874 21.354723 -2.418832 0.000000 0.000000 0.000000 0.000000 0.000000 0.000000 2.922802 4.341862 51.323432 -2.080374 -3.419320 1.202349 -4.574673 3.554702 8.928326 0.000000 0.000000 0.000000 4.993372 10.322145 52.016639 -12.788217 -5.282299 -1.219435 11.931690 3.939163 0.960515 0.000000 0.000000 0.000000
-33.696099 68.181898 334.818784 -6.615134 3.579782 -52.369267 0.266040 0.127163 52.325717 0.206690 -0.131896 -0.277814 2.093011 0.886258 -0.772380 0.000000 0.000000 0.000000 3.848747 2.472290 -0.271476 13.475081 -2.727336 -0.188665 14.951611 2.021179 -0.794721 -8.262191 -5.982748 -0.657883 0.000000 0.000000 0.000000 0.000000 0.000000 0.000000 4.805181 7.235466 0.324396 -4.959632 -6.740993 2.050244 4.642532 -8.453250 -0.066051 -9.051148 18.181370 -1.807858 0.000000 0.000000 0.000000 0.000000 0.000000 0.000000 1.899693 5.244810 50.817473 -1.921854 -5.404072 1.785546 -8.282041 1.817894 12.772571 0.000000 0.000000 0.000000 5.639922 12.633160 51.901512 -15.984093 -6.853373 -1.762655 18.650301 11.179188 0.263270 0.000000 0.000000 0.000000
-33.866172 68.110146 334.591464 -6.832491 3.426232 -52.310523 0.357028 0.145799 52.260659 0.226003 -0.169285 -0.281668 2.833995 1.132216 -0.827594 0.000000 0.000000 0.000000 3.439150 2.772052 -0.177459 13.577874 -3.037422 -0.166290 14.792057 1.897337 -0.713446 -6.536673 -1.214528 -1.825122 0.000000 0.000000 0.000000 0.000000 0.000000 0.000000 4.170564 10.618079 0.282932 -3.438879 -10.435776 1.783336 5.488407 -7.004645 -0.712329 -6.606555 13.639252 -1.499533 0.000000 0.000000 0.000000 0.000000 0.000000 0.000000 0.669658 6.316762 50.316480 -1.764847 -7.809975 2.496554 -7.995525 2.270524 12.479655 0.000000 0.000000 0.000000 6.258899 14.750215 51.825388 -18.728587 -8.303779 -2.274287 25.391272 17.922876 -1.416098 0.000000 0.000000 0.000000
-34.058851 67.995946 334.328758 -7.084490 3.325110 -52.180749 0.420853 0.196274 52.128509 0.249699 -0.183081 -0.286240 3.893667 0.920708 -0.769367 0.000000 0.000000 0.000000 2.957381 3.117068 -0.091202 13.232075 -2.928158 -0.091372 13.873324 0.252073 0.111366 -4.284534 2.777004 -3.085899 0.000000 0.000000 0.000000 0.000000 0.000000 0.000000 3.775139 12.952185 0.290433 -2.608299 -11.718199 1.810195 6.199102 -8.170114 -0.881390 -4.903710 12.935279 -1.556555 0.000000 0.000000 0.000000 0.000000 0.000000 0.000000 -0.657071 7.443647 49.739389 -1.467840 -10.337554 3.262193 -4.520267 4.406495 8.693803 0.000000 0.000000 0.000000 6.859658 16.397488 51.661315 -20.642790 -9.482987 -2.646784 31.028455 23.271784 -3.516157 0.000000 0.000000 0.000000
-34.290142 67.848014 334.007324 -7.323856 3.178064 -52.646864 0.442899 0.250265 52.589222 0.270039 -0.186265 -0.291299 4.841841 1.336466 -0.970745 0.000000 0.000000 0.000000 2.667268 3.401091 -0.019676 12.798811 -2.423218 -0.061342 12.040469 -2.173681 1.238462 -3.326427 5.738196 -3.808470 0.000000 0.000000 0.000000 0.000000 0.000000 0.000000 3.745671 13.855224 0.307104 -2.414551 -12.400461 1.821251 5.460034 -6.830738 -1.146629 -2.160293 9.077106 -1.507223 0.000000 0.000000 0.000000 0.000000 0.000000 0.000000 -1.802337 8.435658 49.874656 -1.276857 -12.424352 3.894945 1.993531 7.175121 1.555485 0.000000 0.000000 0.000000 7.217526 17.744633 52.110416 -21.903106 -10.292252 -2.884987 35.189744 26.739933 -5.552527 0.000000 0.000000 0.000000
-34.512045 67.694483 333.704553 -7.704101 3.173854 -54.284995 0.357172 0.261097 54.225570 0.439539 -0.381295 -0.300085 6.713338 0.985250 -0.921998 0.000000 0.000000 0.000000 2.118778 4.063092 0.057358 12.832514 -2.163341 0.064789 9.683231 -4.635386 2.182921 -1.723743 8.969671 -4.528846 0.000000 0.000000 0.000000 0.000000 0.000000 0.000000 4.449353 14.846864 0.267410 -3.857688 -13.151255 1.829719 6.669831 -7.425328 -1.407529 -1.901768 9.786974 -1.654821 0.000000 0.000000 0.000000 0.000000 0.000000 0.000000 -2.793002 9.290173 51.276035 -0.955369 -14.345396 4.502147 14.689676 10.109562 -12.584659 0.000000 0.000000 0.000000 7.119013 19.249058 53.778941 -22.883966 -11.175802 -3.084476 37.749207 28.380558 -7.120589 0.000000 0.000000 0.000000
-34.729980 67.413381 333.416577 -7.775054 2.893081 -55.573870 0.616327 0.320699 55.497751 0.246915 -0.176053 -0.303497 6.427307 2.279600 -1.363925 0.000000 0.000000 0.000000 1.297741 4.935970 0.130090 13.073245 -2.561709 0.255603 5.499401 -7.885544 3.375331 0.774121 11.236775 -5.300342 0.000000 0.000000 0.000000 0.000000 0.000000 0.000000 3.097736 17.493735 0.402948 -1.545615 -17.296490 1.774215 5.139707 -6.767013 -0.421107 -0.413092 10.898561 -2.570475 0.000000 0.000000 0.000000 0.000000 0.000000 0.000000 -4.369584 10.168041 52.263357 -0.368496 -17.147496 5.406637 22.476705 10.069749 -22.123574 0.000000 0.000000 0.000000 6.724314 20.277132 55.102478 -23.502502 -11.667710 -3.197249 38.119634 28.050507 -7.708327 0.000000 0.000000 0.000000
-34.886993 67.406415 333.292162 -7.713909 2.446854 -59.854029 0.963883 0.411645 59.746634 0.254312 -0.178758 -0.285154 6.358631 3.084055 -1.507580 0.000000 0.000000 0.000000 -0.014734 6.173572 0.251154 13.196636 -3.329585 0.440332 2.306951 -7.893514 2.990526 2.579626 9.360547 -4.629295 0.000000 0.000000 0.000000 0.000000 0.000000 0.000000 1.880140 17.673803 0.495868 -0.091302 -16.782707 1.918043 4.665670 -7.400850 0.021467 -0.326533 11.229116 -2.786106 0.000000 0.000000 0.000000 0.000000 0.000000 0.000000 -6.003879 10.403215 56.438334 -0.462272 -18.914437 5.886224 25.822306 10.472532 -26.250520 0.000000 0.000000 0.000000 3.694781 22.141073 59.636944 -24.063860 -13.300139 -3.422928 40.828091 29.816525 -9.217830 0.000000 0.000000 0.000000
